<svg width="726" height="135" viewBox="0 0 726 135" fill="none" xmlns="http://www.w3.org/2000/svg">
<path fill-rule="evenodd" clip-rule="evenodd" d="M676.047 129.698C681.327 131.694 686.847 132.691 692.607 132.691C699.567 132.691 705.327 131.517 709.887 129.17C714.447 126.822 717.867 123.711 720.147 119.837C722.427 115.846 723.567 111.62 723.567 107.159C723.567 103.285 722.727 100.057 721.047 97.4743C719.487 94.7743 717.267 92.4852 714.387 90.607C711.507 88.7287 708.207 87.2613 704.487 86.2048C701.727 85.2657 698.967 84.3853 696.207 83.5635C693.447 82.7418 691.167 81.6266 689.367 80.2179C687.687 78.8092 686.907 76.931 687.027 74.5832C687.027 73.0571 687.507 71.7071 688.467 70.5332C689.547 69.3593 690.927 68.4789 692.607 67.892C694.287 67.1876 696.207 66.8941 698.367 67.0115C700.767 67.1289 703.407 67.7746 706.287 68.9485C708.607 69.7655 710.675 70.8633 712.493 72.242C713.026 72.6461 713.537 73.0743 714.027 73.5267L721.767 61.729C718.047 58.7942 714.027 56.7399 709.707 55.566C705.507 54.2747 700.527 53.629 694.767 53.629C688.407 53.629 683.127 54.803 678.927 57.1508C674.727 59.4986 671.607 62.492 669.567 66.1311C667.527 69.6528 666.507 73.3506 666.507 77.2245C666.507 82.2722 668.127 86.7331 671.367 90.607C674.607 94.4808 679.527 97.4156 686.127 99.4112C689.007 100.233 691.767 101.113 694.407 102.052C697.047 102.874 699.207 103.989 700.887 105.398C702.567 106.689 703.407 108.509 703.407 110.857C703.407 112.852 702.807 114.437 701.607 115.611C700.527 116.785 699.027 117.665 697.107 118.252C695.307 118.722 693.267 118.957 690.987 118.957C687.987 118.957 684.807 118.252 681.447 116.844C678.681 115.541 675.871 113.639 673.018 111.139C672.529 110.71 672.039 110.264 671.547 109.8L662.907 120.894C666.507 124.767 670.887 127.702 676.047 129.698ZM682.275 115.062C685.423 116.377 688.321 117 690.987 117C693.112 117 694.96 116.783 696.551 116.372C698.19 115.865 699.339 115.151 700.12 114.302L700.155 114.264L700.193 114.228C700.943 113.493 701.407 112.446 701.407 110.857C701.407 109.025 700.785 107.808 699.651 106.937L699.618 106.911L699.585 106.884C698.153 105.683 696.247 104.679 693.8 103.917L693.762 103.905L693.723 103.891C691.127 102.968 688.408 102.1 685.567 101.289L685.551 101.285L685.536 101.28C678.689 99.2101 673.381 96.1048 669.819 91.8459C666.284 87.6192 664.507 82.7197 664.507 77.2245C664.507 73.0008 665.622 68.9757 667.821 65.1765C670.062 61.1847 673.465 57.9504 677.934 55.452C682.517 52.8903 688.165 51.6725 694.767 51.6725C700.657 51.6725 705.838 52.3303 710.275 53.6897C714.862 54.9411 719.113 57.1222 723.022 60.206L724.419 61.3081L714.407 76.5693L712.654 74.9491C710.708 73.1515 708.37 71.7614 705.609 70.7893L705.563 70.773L705.518 70.7545C702.79 69.6428 700.38 69.0689 698.267 68.9656L698.256 68.965C696.347 68.8613 694.744 69.1246 693.395 69.6903L693.338 69.7141L693.279 69.7345C691.9 70.2163 690.823 70.9115 689.993 71.7992C689.345 72.6093 689.027 73.5134 689.027 74.5832V74.6321L689.024 74.6809C688.933 76.4711 689.495 77.7371 690.643 78.7115C692.199 79.9221 694.228 80.9293 696.789 81.6918C699.558 82.5163 702.327 83.3991 705.095 84.3403C708.968 85.445 712.441 86.9865 715.496 88.979C718.597 91.0015 721.035 93.4957 722.762 96.4671C724.675 99.4291 725.567 103.031 725.567 107.159C725.567 111.963 724.335 116.516 721.893 120.792L721.886 120.802L721.88 120.813C719.388 125.048 715.669 128.403 710.818 130.901C705.888 133.439 699.783 134.648 692.607 134.648C686.605 134.648 680.84 133.607 675.326 131.523L675.319 131.52L675.311 131.517C669.878 129.416 665.24 126.313 661.427 122.21L660.306 121.004L671.318 106.866L672.935 108.392C676.171 111.444 679.286 113.648 682.275 115.062Z" fill="#D5D0D5" fill-opacity="0.32"/>
<path fill-rule="evenodd" clip-rule="evenodd" d="M587.09 127.937C593.45 131.341 601.13 133.043 610.13 133.043C614.45 133.043 618.95 132.339 623.63 130.93C627.751 129.62 631.561 127.964 635.063 125.962C635.161 125.906 635.26 125.85 635.358 125.793C635.834 125.516 636.304 125.234 636.769 124.944C636.769 124.944 636.77 124.944 636.77 124.944L636.769 124.942L627.59 110.329C627.045 110.709 626.491 111.074 625.929 111.422C623.894 112.682 621.747 113.727 619.49 114.555C616.61 115.611 613.61 116.139 610.49 116.139C606.05 116.139 602.09 115.2 598.61 113.322C596.289 111.991 594.287 110.294 592.607 108.231C592.176 107.702 591.766 107.149 591.377 106.572L649.91 87.2613C647.63 76.4614 643.07 68.1267 636.23 62.2572C629.51 56.2703 620.93 53.2769 610.49 53.2769C602.57 53.2769 595.31 55.0964 588.71 58.7355C582.23 62.2572 577.07 67.0115 573.23 72.9984C569.39 78.9853 567.47 85.7353 567.47 93.2482C567.47 100.879 569.15 107.746 572.51 113.85C575.87 119.837 580.73 124.533 587.09 127.937ZM587.734 57.028C594.646 53.218 602.244 51.3204 610.49 51.3204C621.343 51.3204 630.423 54.4434 637.564 60.7997C644.795 67.0106 649.524 75.7581 651.869 86.8656L652.227 88.5618L594.636 107.562C596.062 109.188 597.716 110.538 599.599 111.621C602.745 113.314 606.358 114.183 610.49 114.183C613.374 114.183 616.136 113.696 618.788 112.723C621.503 111.726 624.049 110.399 626.428 108.736L628.172 107.518L639.505 125.56L637.844 126.594C633.731 129.154 629.197 131.218 624.248 132.791L624.233 132.796L624.218 132.8C619.373 134.259 614.674 135 610.13 135C600.874 135 592.847 133.249 586.13 129.653C579.449 126.077 574.308 121.119 570.757 114.792L570.753 114.785L570.749 114.778C567.217 108.361 565.47 101.169 565.47 93.2482C565.47 85.3916 567.483 78.2769 571.536 71.9586C575.559 65.6862 580.969 60.7054 587.734 57.028ZM597.71 71.9419C600.95 69.9463 604.67 68.9485 608.87 68.9485C614.15 68.9485 618.23 70.2398 621.11 72.8223C623.369 74.7668 625.151 76.9774 626.458 79.4542C626.581 79.6873 626.699 79.9227 626.814 80.1605C626.984 80.5146 627.146 80.8739 627.297 81.2384L587.408 95.1748C587.345 94.5093 587.303 93.8312 587.284 93.1407C587.275 92.8269 587.27 92.5106 587.27 92.1917C587.27 87.4961 588.17 83.4462 589.97 80.0418C591.89 76.5201 594.47 73.8202 597.71 71.9419ZM591.741 80.9521C593.503 77.7244 595.834 75.3037 598.73 73.6251L598.753 73.6116L598.776 73.5976C601.666 71.8173 605.009 70.905 608.87 70.905C613.828 70.905 617.361 72.1144 619.759 74.2646L619.774 74.278L619.789 74.2911C621.794 76.0176 623.379 77.9584 624.556 80.1187L589.271 92.4463C589.271 92.3616 589.27 92.2768 589.27 92.1917C589.27 87.7451 590.121 84.0206 591.741 80.9521Z" fill="#D5D0D5" fill-opacity="0.32"/>
<path fill-rule="evenodd" clip-rule="evenodd" d="M503.957 129.698C509.237 131.694 514.757 132.691 520.517 132.691C527.477 132.691 533.237 131.517 537.797 129.17C542.357 126.822 545.777 123.711 548.057 119.837C550.337 115.846 551.477 111.62 551.477 107.159C551.477 103.285 550.637 100.057 548.957 97.4743C547.397 94.7743 545.177 92.4852 542.297 90.607C539.417 88.7287 536.117 87.2613 532.397 86.2048C529.637 85.2657 526.877 84.3853 524.117 83.5635C521.357 82.7418 519.077 81.6266 517.277 80.2179C515.597 78.8092 514.817 76.931 514.937 74.5832C514.937 73.0571 515.417 71.7071 516.377 70.5332C517.457 69.3593 518.837 68.4789 520.517 67.892C522.197 67.1876 524.117 66.8941 526.277 67.0115C528.677 67.1289 531.317 67.7746 534.197 68.9485C536.517 69.7655 538.586 70.8633 540.403 72.242C540.936 72.6461 541.447 73.0743 541.937 73.5267L549.677 61.729C545.957 58.7942 541.937 56.7399 537.617 55.566C533.417 54.2747 528.437 53.629 522.677 53.629C516.317 53.629 511.037 54.803 506.837 57.1508C502.637 59.4986 499.517 62.492 497.477 66.1311C495.437 69.6528 494.417 73.3506 494.417 77.2245C494.417 82.2722 496.037 86.7331 499.277 90.607C502.517 94.4808 507.437 97.4156 514.037 99.4112C516.917 100.233 519.677 101.113 522.317 102.052C524.957 102.874 527.117 103.989 528.797 105.398C530.477 106.689 531.317 108.509 531.317 110.857C531.317 112.852 530.717 114.437 529.517 115.611C528.437 116.785 526.937 117.665 525.017 118.252C523.217 118.722 521.177 118.957 518.897 118.957C515.897 118.957 512.717 118.252 509.357 116.844C506.591 115.541 503.782 113.639 500.928 111.139C500.439 110.71 499.949 110.264 499.457 109.8L490.817 120.894C494.417 124.767 498.797 127.702 503.957 129.698ZM510.185 115.062C513.334 116.377 516.231 117 518.897 117C521.022 117 522.871 116.783 524.461 116.372C526.1 115.865 527.249 115.151 528.03 114.302L528.065 114.264L528.103 114.228C528.854 113.493 529.317 112.446 529.317 110.857C529.317 109.025 528.695 107.808 527.561 106.937L527.528 106.911L527.495 106.884C526.063 105.683 524.157 104.679 521.71 103.917L521.672 103.905L521.633 103.891C519.037 102.968 516.318 102.1 513.477 101.289L513.462 101.285L513.446 101.28C506.599 99.2101 501.291 96.1048 497.729 91.8459C494.194 87.6192 492.417 82.7197 492.417 77.2245C492.417 73.0008 493.532 68.9757 495.731 65.1765C497.972 61.1847 501.375 57.9504 505.845 55.452C510.427 52.8903 516.075 51.6725 522.677 51.6725C528.567 51.6725 533.748 52.3303 538.185 53.6897C542.772 54.9411 547.023 57.1222 550.932 60.206L552.329 61.3081L542.317 76.5693L540.564 74.9491C538.618 73.1515 536.28 71.7614 533.519 70.7893L533.473 70.773L533.428 70.7545C530.7 69.6428 528.29 69.0689 526.177 68.9656L526.166 68.965C524.258 68.8613 522.654 69.1246 521.305 69.6903L521.248 69.7141L521.19 69.7345C519.811 70.2163 518.733 70.9115 517.903 71.7992C517.255 72.6093 516.937 73.5134 516.937 74.5832V74.6321L516.934 74.6809C516.843 76.4711 517.405 77.7371 518.554 78.7115C520.109 79.9221 522.138 80.9293 524.699 81.6918C527.468 82.5163 530.237 83.3991 533.005 84.3403C536.878 85.445 540.351 86.9865 543.406 88.979C546.507 91.0015 548.946 93.4957 550.672 96.4671C552.585 99.4291 553.477 103.031 553.477 107.159C553.477 111.963 552.245 116.516 549.803 120.792L549.797 120.802L549.79 120.813C547.298 125.048 543.579 128.403 538.728 130.901C533.798 133.439 527.693 134.648 520.517 134.648C514.515 134.648 508.75 133.607 503.236 131.523L503.229 131.52L503.222 131.517C497.788 129.416 493.15 126.313 489.337 122.21L488.217 121.004L499.228 106.866L500.845 108.392C504.081 111.444 507.196 113.648 510.185 115.062Z" fill="#D5D0D5" fill-opacity="0.32"/>
<path fill-rule="evenodd" clip-rule="evenodd" d="M449.844 56.6225V131.107H470.004V56.6225H449.844ZM452.544 22.462C450.144 24.4576 448.944 26.9815 448.944 30.0336C448.944 32.9684 450.144 35.4336 452.544 37.4292C455.064 39.4249 457.764 40.4227 460.644 40.4227C463.524 40.4227 466.104 39.4835 468.384 37.6053C470.784 35.6097 471.984 33.0858 471.984 30.0336C471.984 26.9815 470.784 24.4576 468.384 22.462C466.104 20.4663 463.524 19.4685 460.644 19.4685C457.764 19.4685 455.064 20.4663 452.544 22.462ZM447.844 54.666H472.004V133.063H447.844V54.666ZM451.267 20.956L451.286 20.9413C454.115 18.7012 457.249 17.512 460.644 17.512C464.041 17.512 467.081 18.7032 469.699 20.987C472.528 23.3482 473.984 26.4093 473.984 30.0336C473.984 33.6661 472.522 36.7328 469.68 39.096L469.673 39.1019C467.046 41.2658 464.013 42.3792 460.644 42.3792C457.249 42.3792 454.115 41.19 451.286 38.9499L451.267 38.9351L451.249 38.92C448.428 36.5738 446.944 33.5744 446.944 30.0336C446.944 26.4012 448.407 23.3345 451.249 20.9712L451.267 20.956Z" fill="#D5D0D5" fill-opacity="0.32"/>
<path fill-rule="evenodd" clip-rule="evenodd" d="M428.54 124.734C428.754 124.571 428.965 124.406 429.173 124.239L419.092 111.913C419.014 111.976 418.935 112.037 418.855 112.099C416.986 113.54 414.785 114.71 412.253 115.611C409.733 116.433 406.973 116.844 403.973 116.844C399.293 116.844 395.152 115.846 391.552 113.85C387.953 111.737 385.133 108.92 383.092 105.398C381.052 101.876 380.033 98.0025 380.033 93.7765C380.033 89.3157 380.992 85.3831 382.913 81.9788C384.953 78.4571 387.592 75.6984 390.832 73.7028C394.193 71.7071 397.913 70.7093 401.992 70.7093C405.833 70.7093 409.253 71.4137 412.253 72.8223C414.904 73.9198 417.122 75.102 418.907 76.369C419.222 76.5928 419.524 76.8192 419.812 77.0482C419.812 77.0483 419.812 77.0481 419.812 77.0482L429.893 64.1942C426.293 61.2594 422.033 58.9703 417.112 57.3268C412.193 55.566 406.552 54.6856 400.193 54.6856C393.233 54.6856 386.633 56.2703 380.392 59.4399C374.272 62.492 369.293 66.9528 365.453 72.8223C361.733 78.6919 359.872 85.6766 359.872 93.7765C359.872 101.876 361.612 108.861 365.092 114.731C368.693 120.483 373.673 125.002 380.033 128.289C386.393 131.459 393.772 133.044 402.173 133.044C407.092 133.044 411.953 132.28 416.753 130.754C420.925 129.361 424.537 127.587 427.587 125.433C427.911 125.204 428.229 124.972 428.54 124.734ZM379.476 57.7007C373.031 60.9166 367.791 65.6191 363.768 71.7677L363.76 71.7795L363.753 71.7914C359.805 78.0207 357.872 85.3762 357.872 93.7765C357.872 102.154 359.674 109.491 363.362 115.712L363.374 115.732L363.387 115.752C367.183 121.817 372.435 126.576 379.098 130.019L379.111 130.026L379.125 130.033C385.812 133.365 393.513 135 402.173 135C407.308 135 412.376 134.203 417.371 132.615L417.385 132.611L417.399 132.606C422.502 130.901 426.864 128.626 430.442 125.751L431.968 124.525L419.395 109.152L417.831 110.395C416.112 111.761 414.042 112.89 411.594 113.763C409.31 114.505 406.775 114.887 403.973 114.887C399.602 114.887 395.817 113.96 392.56 112.16C389.262 110.219 386.696 107.65 384.833 104.434C382.971 101.219 382.033 97.6799 382.033 93.7765C382.033 89.6014 382.928 86.0062 384.658 82.9337C386.545 79.6797 388.956 77.1738 391.885 75.3666C394.916 73.5698 398.27 72.6658 401.992 72.6658C405.579 72.6658 408.696 73.3225 411.387 74.5862L411.43 74.6062L411.473 74.6242C414.479 75.8682 416.82 77.1909 418.551 78.5669L420.148 79.8356L432.648 63.8941L431.173 62.6911C427.371 59.5915 422.897 57.194 417.779 55.4821C412.603 53.6326 406.73 52.7291 400.193 52.7291C392.91 52.7291 385.996 54.3899 379.476 57.7007Z" fill="#D5D0D5" fill-opacity="0.32"/>
<path fill-rule="evenodd" clip-rule="evenodd" d="M317.556 56.6225H299.376V131.107H319.536V99.059C319.536 94.4808 320.676 90.1374 322.956 86.0287C325.356 81.9201 328.656 78.6332 332.856 76.168C336.669 73.8883 341.043 72.7977 345.978 72.8962C346.634 72.9093 347.3 72.9433 347.976 72.9984L348.876 53.2769C348.25 53.2769 347.58 53.3311 346.866 53.4396C344.703 53.7681 342.133 54.5943 339.156 55.9182C335.196 57.5616 331.296 60.0268 327.456 63.3137C324.848 65.5359 322.623 68.0754 320.782 70.9323C320.154 71.9058 319.571 72.9162 319.033 73.9633L317.556 56.6225ZM320.517 67.8312L319.396 54.666H297.376V133.063H321.536V99.059C321.536 94.8211 322.585 90.8039 324.703 86.9812C326.93 83.1759 329.981 80.137 333.885 77.8457L333.892 77.8416L333.899 77.8374C337.806 75.5014 342.41 74.508 347.81 74.9482L349.881 75.117L350.967 51.3204H348.876C345.94 51.3204 342.399 52.3288 338.351 54.1266C334.172 55.8644 330.103 58.4484 326.139 61.8408C324.026 63.6413 322.152 65.6391 320.517 67.8312Z" fill="#D5D0D5" fill-opacity="0.32"/>
<path fill-rule="evenodd" clip-rule="evenodd" d="M216.719 127.937C223.079 131.341 230.759 133.043 239.759 133.043C244.079 133.043 248.579 132.339 253.259 130.93C257.379 129.62 261.19 127.965 264.692 125.963C264.79 125.906 264.888 125.85 264.985 125.793C265.462 125.517 265.934 125.233 266.399 124.944L257.219 110.329C256.674 110.709 256.12 111.074 255.558 111.422C253.523 112.682 251.376 113.727 249.119 114.555C246.239 115.611 243.239 116.139 240.119 116.139C235.679 116.139 231.719 115.2 228.239 113.322C225.918 111.991 223.916 110.294 222.236 108.231C221.805 107.702 221.395 107.149 221.006 106.572L279.539 87.2613C277.259 76.4614 272.699 68.1267 265.859 62.2572C259.139 56.2703 250.559 53.2769 240.119 53.2769C232.199 53.2769 224.939 55.0964 218.339 58.7355C211.859 62.2572 206.699 67.0115 202.859 72.9984C199.019 78.9853 197.099 85.7353 197.099 93.2482C197.099 100.879 198.779 107.746 202.139 113.85C205.499 119.837 210.359 124.533 216.719 127.937ZM217.363 57.0281C224.275 53.2181 231.873 51.3204 240.119 51.3204C250.971 51.3204 260.051 54.4429 267.192 60.7981C274.423 67.0091 279.153 75.7573 281.498 86.8656L281.856 88.5618L224.265 107.562C225.69 109.188 227.344 110.538 229.228 111.621C232.373 113.314 235.987 114.183 240.119 114.183C243.003 114.183 245.765 113.696 248.417 112.723C251.132 111.726 253.678 110.399 256.057 108.736L257.801 107.518L269.134 125.56L267.473 126.594C263.36 129.154 258.826 131.218 253.877 132.791L253.862 132.796L253.847 132.8C249.002 134.259 244.303 135 239.759 135C230.503 135 222.476 133.249 215.759 129.653C209.078 126.077 203.937 121.119 200.386 114.792L200.382 114.785L200.378 114.778C196.846 108.361 195.099 101.169 195.099 93.2482C195.099 85.3916 197.112 78.2769 201.165 71.9586C205.188 65.6863 210.598 60.7054 217.363 57.0281ZM227.339 71.9419C230.579 69.9463 234.299 68.9485 238.499 68.9485C243.779 68.9485 247.859 70.2398 250.739 72.8223C252.998 74.7668 254.78 76.9774 256.087 79.4542C256.21 79.6873 256.328 79.9227 256.443 80.1605C256.613 80.5146 256.775 80.8739 256.926 81.2384L217.037 95.1748C216.974 94.5093 216.932 93.8312 216.912 93.1407C216.904 92.8269 216.899 92.5106 216.899 92.1917C216.899 87.4961 217.799 83.4462 219.599 80.0418C221.519 76.5201 224.099 73.8202 227.339 71.9419ZM221.37 80.9514C223.132 77.724 225.463 75.3036 228.359 73.6251L228.382 73.6116L228.405 73.5976C231.295 71.8173 234.638 70.905 238.499 70.905C243.457 70.905 246.99 72.1144 249.388 74.2646L249.403 74.278L249.418 74.2911C251.423 76.0176 253.008 77.9584 254.185 80.1187L218.9 92.4463C218.899 92.3616 218.899 92.2768 218.899 92.1917C218.899 87.7447 219.75 84.0201 221.37 80.9514Z" fill="#D5D0D5" fill-opacity="0.32"/>
<path fill-rule="evenodd" clip-rule="evenodd" d="M158.255 92.613L188.023 131.107H163.723L144.385 106.408L126.643 131.107H106.303L134.452 93.723L105.403 56.6225H130.423L149.007 80.6536L164.443 56.6225H184.603L158.255 92.613ZM160.739 92.5812L192.044 133.063H162.736L144.454 109.714L127.682 133.063H102.346L131.951 93.746L101.352 54.666H131.418L148.854 77.2136L163.338 54.666H188.495L160.739 92.5812Z" fill="#D5D0D5" fill-opacity="0.32"/>
<path fill-rule="evenodd" clip-rule="evenodd" d="M0.226562 0.959991H91.1666V24.5945H25.2866V54.8421H83.9666V78.6527H25.2866V109.429H93.6866V133.063H0.226562V0.959991ZM23.2866 111.385V76.6962H81.9666V56.7986H23.2866V22.638H89.1666V2.91649H2.22656V131.107H91.6866V111.385H23.2866Z" fill="#D5D0D5" fill-opacity="0.32"/>
</svg>
